<?xml version="1.0" standalone="no"?>
<!DOCTYPE svg PUBLIC "-//W3C//DTD SVG 20010904//EN"
 "http://www.w3.org/TR/2001/REC-SVG-20010904/DTD/svg10.dtd">
<svg version="1.0" xmlns="http://www.w3.org/2000/svg"
 width="512.000000pt" height="512.000000pt" viewBox="0 0 512.000000 512.000000"
 preserveAspectRatio="xMidYMid meet">
<metadata>
Created by potrace 1.14, written by Peter Selinger 2001-2017
</metadata>
<g transform="translate(0.000000,512.000000) scale(0.100000,-0.100000)"
fill="#000000" stroke="none">
<path d="M2238 5105 c-499 -71 -917 -250 -1296 -554 -311 -250 -575 -598 -733
-966 -93 -218 -140 -382 -184 -636 -25 -149 -26 -170 -22 -425 4 -281 14 -363
68 -584 226 -911 936 -1627 1849 -1863 232 -61 333 -72 640 -72 307 0 408 11
640 72 947 245 1674 1006 1870 1957 11 53 27 107 36 121 14 22 15 63 11 367
-5 362 -12 432 -68 658 -227 917 -952 1642 -1869 1869 -211 52 -303 63 -580
66 -190 3 -293 0 -362 -10z m624 -1025 c201 -42 385 -120 563 -238 135 -89
327 -281 417 -417 59 -89 155 -273 172 -331 12 -40 -253 -256 -371 -303 -194
-76 -332 -16 -658 289 -227 212 -344 280 -480 280 -136 0 -253 -68 -480 -280
-226 -211 -334 -285 -456 -311 -126 -27 -279 35 -439 179 l-55 49 23 70 c113
352 425 705 778 881 144 72 329 129 494 152 107 15 381 4 492 -20z m-283
-1741 c114 -26 226 -103 446 -309 77 -72 174 -154 214 -182 235 -163 415 -127
699 138 l93 86 -24 -63 c-130 -346 -424 -668 -763 -837 -106 -53 -261 -107
-388 -134 -146 -32 -446 -32 -592 0 -314 68 -566 204 -790 427 -66 66 -146
156 -177 201 -66 94 -147 241 -126 229 8 -5 43 -29 78 -54 130 -91 258 -113
384 -68 90 33 191 106 352 257 298 278 430 347 594 309z"/>
</g>
</svg>
